# xmcd
#
# Track frame offsets:
#	150
#	29820
#	56052
#	78552
#	108222
#	134454
#	156954
#	157966
#	158416
#	158866
#	159316
#	159766
#	160216
#	160666
#	161116
#	161566
#	162016
#	162466
#	162916
#	163366
#	163816
#	164266
#	164716
#	194386
#
# Disc length: 2940 seconds
#
# Revision: 0
# Processed by: cddbd v1.5.2PL0 Copyright (c) Steve Scherf et al.
# Submitted via: EZCDAudioConverter 2.0.4.1
#
DISCID=2d0b7a18
DTITLE=Psathas, John - Psathas, John-One Study, One Summary for Solo Perc+tape
DYEAR=1900
DGENRE=
TTITLE0=Psathas-One Study, One Summary-Etude-(performance mix w junk perc)
TTITLE1=Psathas-One Study, One Summary-Summary (performance mix)
TTITLE2=silent track
TTITLE3=Psathas-One Study, One Summary-Etude-(performance mix wo junk perc)
TTITLE4=Psathas-One Study, One Summary-Summary (performance mix)
TTITLE5=silent track
TTITLE6=junk perc - samples-01
TTITLE7=junk perc - samples-02
TTITLE8=junk perc - samples-03
TTITLE9=junk perc - samples-04
TTITLE10=junk perc - samples-05
TTITLE11=junk perc - samples-06
TTITLE12=junk perc - samples-07
TTITLE13=junk perc - samples-08
TTITLE14=junk perc - samples-09
TTITLE15=junk perc - samples-10
TTITLE16=junk perc - samples-11
TTITLE17=junk perc - samples-12
TTITLE18=junk perc - samples-13
TTITLE19=junk perc - samples-14
TTITLE20=junk perc - samples-15
TTITLE21=junk perc - samples-16
TTITLE22=Psathas-One Study, One Summary-Etude (reference mix)
TTITLE23=Psathas-One Study, One Summary-Summary (reference mix)
EXTD=
EXTT0=
EXTT1=
EXTT2=
EXTT3=
EXTT4=
EXTT5=
EXTT6=
EXTT7=
EXTT8=
EXTT9=
EXTT10=
EXTT11=
EXTT12=
EXTT13=
EXTT14=
EXTT15=
EXTT16=
EXTT17=
EXTT18=
EXTT19=
EXTT20=
EXTT21=
EXTT22=
EXTT23=
PLAYORDER=
